<svg id="Capa_1" data-name="Capa 1" xmlns="http://www.w3.org/2000/svg" viewBox="0 0 204.72 85.72"><defs><style>.cls-1{fill:#d63838;}.cls-2{font-size:36px;font-family:Geometos;}</style></defs><title>mvprio</title><path d="M68.6,2.92V70.17H55.72v-34L34.65,61.43l-21-25.3v34H.8V2.92h.83l33,38.82L67.77,2.92Z"/><path d="M145,3.7a23.27,23.27,0,0,1,9.34,1.89,23.81,23.81,0,0,1,12.7,12.69A23.47,23.47,0,0,1,169,27.62a25.11,25.11,0,0,1-1.65,9.2,21.17,21.17,0,0,1-4.88,7.41,22.43,22.43,0,0,1-8.14,5A33.24,33.24,0,0,1,142.93,51h-15V71.05H115.05V3.7Zm0,35.7a11.78,11.78,0,0,0,5-1,9.31,9.31,0,0,0,3.45-2.62,11.06,11.06,0,0,0,2-3.77,15,15,0,0,0,.64-4.42,12.92,12.92,0,0,0-.83-4.55,12,12,0,0,0-11.59-8H127.93V39.4Z"/><path class="cls-1" d="M110.28,2.92l-32,67.44h-.73L70.12,54.72l.4-24.46L77.89,42,96,2.92Z"/><text class="cls-2" transform="translate(131.83 82.8)">rio</text></svg>